<svg width="16" height="16" viewBox="0 0 16 16" fill="none" xmlns="http://www.w3.org/2000/svg">
<path d="M13.3333 1.33325H6.66665C5.93131 1.33325 5.33331 1.93125 5.33331 2.66659V5.33325H2.66665C1.93131 5.33325 1.33331 5.93125 1.33331 6.66658V13.3333C1.33331 14.0686 1.93131 14.6666 2.66665 14.6666H9.33331C10.0686 14.6666 10.6666 14.0686 10.6666 13.3333V10.6666H13.3333C14.0686 10.6666 14.6666 10.0686 14.6666 9.33325V2.66659C14.6666 1.93125 14.0686 1.33325 13.3333 1.33325ZM2.66665 13.3333V6.66658H9.33331L9.33465 13.3333H2.66665ZM13.3333 9.33325H10.6666V6.66658C10.6666 5.93125 10.0686 5.33325 9.33331 5.33325H6.66665V2.66659H13.3333V9.33325Z" fill="white"/>
</svg>
