<svg width="18" height="18" viewBox="0 0 18 18" fill="none" xmlns="http://www.w3.org/2000/svg">
<path d="M3.55556 16H14.4444C14.857 16 15.2527 15.8361 15.5444 15.5444C15.8361 15.2527 16 14.857 16 14.4444V3.55556C16 3.143 15.8361 2.74733 15.5444 2.45561C15.2527 2.16389 14.857 2 14.4444 2H3.55556C3.143 2 2.74733 2.16389 2.45561 2.45561C2.16389 2.74733 2 3.143 2 3.55556V14.4444C2 14.857 2.16389 15.2527 2.45561 15.5444C2.74733 15.8361 3.143 16 3.55556 16ZM5.88889 10.5556L7.72678 12.3934L10.5556 8.22222L14.4444 13.6667H3.55556L5.88889 10.5556Z" fill="white" fill-opacity="0.6"/>
</svg>
