<svg width="256" height="256" viewBox="0 0 256 256" fill="none" xmlns="http://www.w3.org/2000/svg">
<rect width="256" height="256" rx="50" fill="#0964FD"/>
<path fill-rule="evenodd" clip-rule="evenodd" d="M201.318 71.6683C204.47 69.4422 202.898 64.4741 199.041 64.4741H105.384C104.366 64.4741 103.371 64.7898 102.538 65.3779L48.1346 103.794C45.9008 105.371 45.9008 108.689 48.1346 110.266L91.5606 140.93C92.3934 141.518 93.3873 141.834 94.4059 141.834H129.505C131.142 141.834 132.469 140.505 132.469 138.865V133.95C132.469 131.576 135.112 130.162 137.081 131.483L161.391 147.779C163.146 148.955 163.146 151.538 161.391 152.714L137.081 169.01C135.112 170.33 132.469 168.916 132.469 166.542V160.638C132.469 158.998 131.142 157.669 129.505 157.669H93.9376C92.919 157.669 91.9242 157.984 91.0913 158.573L53.7403 184.948C50.5877 187.174 52.1605 192.142 56.0175 192.142H149.675C150.693 192.142 151.687 191.826 152.52 191.238L206.924 152.822C209.157 151.245 209.157 147.927 206.924 146.35L164.55 116.429C163.718 115.841 162.724 115.525 161.704 115.525H124.566C122.928 115.525 121.602 116.854 121.602 118.494V123.409C121.602 125.783 118.959 127.197 116.989 125.876L92.68 109.58C90.9253 108.404 90.9253 105.821 92.68 104.645L116.989 88.349C118.959 87.0289 121.602 88.4428 121.602 90.8166V96.7212C121.602 98.361 122.928 99.6902 124.566 99.6902H160.069C161.088 99.6902 162.082 99.3745 162.914 98.7863L201.318 71.6683Z" fill="white"/>
</svg>
