<svg width="164" height="44" viewBox="0 0 164 44" fill="none" xmlns="http://www.w3.org/2000/svg">
<g clip-path="url(#clip0_672_106)">
<path d="M14.0001 32.4125L11.6383 30.8375L6.83342 36L7.33342 31.5375L2.75008 35.5625L9.08342 20.3375H1.16675L10.5001 16.925L16.6668 18.5875L15.6667 11.85L21.0001 20.775L22.3334 8L25.0834 24.1875L23.2501 26.375L25.4168 29.7H22.3334L24.4168 31.5375L14.0001 32.4125Z" fill="url(#paint0_linear_672_106)"/>
<path d="M8 28.125H15L14.5 24.8875L20.9167 21.475L22.3333 8L25.4167 24.0125L23.25 26.375L25.4167 29.7H22.3333L24.4167 31.5375L14 32.4125L8 28.125Z" fill="white"/>
<path d="M17 29.5249C17.2761 29.5249 17.5 29.2898 17.5 28.9999C17.5 28.7099 17.2761 28.4749 17 28.4749C16.7239 28.4749 16.5 28.7099 16.5 28.9999C16.5 29.2898 16.7239 29.5249 17 29.5249Z" fill="black"/>
<path d="M18.6667 29.5249C18.9429 29.5249 19.1667 29.2898 19.1667 28.9999C19.1667 28.7099 18.9429 28.4749 18.6667 28.4749C18.3906 28.4749 18.1667 28.7099 18.1667 28.9999C18.1667 29.2898 18.3906 29.5249 18.6667 29.5249Z" fill="black"/>
<path d="M23 20.075L22.5 21.6838L23.3333 22.0056L22.8888 23.4" stroke="black" stroke-linecap="round"/>
<path d="M15.3524 27.6722L14.9751 25.2291L19.7086 24.1748L20.6177 27.4482L15.3524 27.6722Z" fill="white" stroke="black"/>
<path d="M23.5 25.325L24.3333 26.1125" stroke="black" stroke-linecap="round"/>
<path d="M24.3335 24.2749L25.1668 25.0624" stroke="black" stroke-linecap="round"/>
<path d="M13.6667 24.8875L13.7716 24.0125L19.8334 22.7" stroke="black" stroke-linecap="square"/>
<path d="M16.8493 25.6555L15.9495 27.5056L17.7871 27.546L16.8493 25.6555Z" fill="black"/>
</g>
<path d="M41.12 29V26.632H40.144C39.52 26.632 39.424 26.344 39.424 25.88V22.76H41.12V20.392H39.424V17.88H35.904V20.392H34.224V22.76H35.904V26.552C35.904 28.04 36.48 29 38.032 29H41.12ZM42.3301 29H45.8981V24.936C45.8981 23.528 46.9381 22.6 48.5381 22.6C50.1221 22.6 50.8421 23.416 50.8421 24.744V29H54.4421V23.56C54.4421 21.896 53.2261 20.2 50.2501 20.2H50.1381C47.5781 20.2 46.2821 21.448 45.8981 21.832V17.096H42.3301V29ZM61.9563 22.152C63.7643 22.152 64.5963 22.696 64.8363 23.608H59.0763C59.3483 22.696 60.1483 22.152 61.9403 22.152H61.9563ZM68.3883 25.96H64.8683C64.8203 26.168 64.4363 27.064 62.0683 27.064H62.0523C60.0843 27.064 59.2203 26.392 59.0123 25.384H68.4363V24.792C68.4363 22.696 67.5083 20.152 62.4523 20.152H61.4763C56.8203 20.152 55.5083 22.28 55.5083 24.488V24.84C55.5083 27.096 56.9803 29.24 61.5723 29.24H62.4843C67.6203 29.24 68.3883 27.144 68.3883 25.976V25.96ZM76.1435 17.096H73.5515C71.0715 17.096 70.5595 18.296 70.5595 19.368V20.392H68.9115V22.76H70.5595V29H74.0795V22.76H76.1435V20.392H74.0795V19.912C74.0795 19.416 74.1915 19.208 74.7515 19.208H76.1435V17.096ZM83.9296 29.24C89.2416 29.24 90.0896 26.776 90.0896 24.792V24.504C90.0896 22.552 89.1776 20.152 83.9296 20.152H82.7936C77.8016 20.152 76.6176 22.52 76.6176 24.504V24.792C76.6176 26.776 77.8176 29.24 82.8096 29.24H83.9296ZM83.3696 26.92C80.9376 26.92 80.2656 25.704 80.2656 24.696V24.616C80.2656 23.528 80.9376 22.44 83.3696 22.44H83.3856C85.7856 22.44 86.4736 23.544 86.4736 24.616V24.696C86.4736 25.704 85.8016 26.92 83.3696 26.92ZM93.3545 29L95.8345 26.536L98.3625 29H102.395L97.9305 24.568L102.251 20.392H98.2505L95.9945 22.648L93.7385 20.392H89.5305L93.8825 24.632L89.3865 29H93.3545ZM106.167 29L108.647 26.536L111.175 29H115.207L110.743 24.568L115.063 20.392H111.063L108.807 22.648L106.551 20.392H102.343L106.695 24.632L102.199 29H106.167ZM121.058 29.24C125.81 29.24 126.738 27.864 126.738 26.28V26.184C126.738 24.456 125.906 23.56 121.938 23.48L120.402 23.448C118.914 23.4 118.594 23.144 118.594 22.76V22.728C118.594 22.296 118.93 22.088 120.642 22.088H120.658C122.578 22.088 122.738 22.648 122.786 22.968H126.418V22.856C126.418 21.512 125.378 20.152 121.026 20.152H120.386C115.65 20.152 114.946 21.512 114.946 22.84V22.936C114.946 24.2 115.842 25.544 119.586 25.624L121.122 25.656C122.802 25.704 123.01 25.96 123.01 26.408V26.44C123.01 26.856 122.77 27.256 120.786 27.256H120.754C118.674 27.256 118.546 26.408 118.546 26.088H114.866V26.184C114.866 27.288 115.378 29.24 120.402 29.24H121.058ZM133.948 29V26.632H132.972C132.348 26.632 132.252 26.344 132.252 25.88V22.76H133.948V20.392H132.252V17.88H128.732V20.392H127.052V22.76H128.732V26.552C128.732 28.04 129.308 29 130.86 29H133.948ZM147.062 20.392H143.494V24.456C143.494 25.864 142.486 26.792 140.934 26.792C139.414 26.792 138.726 25.928 138.726 24.648V20.392H135.126V25.752C135.126 27.368 136.262 29.192 139.222 29.192H139.35C141.846 29.192 143.094 27.912 143.526 27.512V29H147.062V20.392ZM153.205 29V22.76H156.229V29H159.749V22.76H161.813V20.392H159.749V19.912C159.749 19.416 159.861 19.208 160.421 19.208H161.813V17.096H159.221C156.741 17.096 156.229 18.296 156.229 19.368V20.392H153.205V19.912C153.205 19.416 153.317 19.208 153.877 19.208H155.253V17.096H152.677C150.197 17.096 149.685 18.296 149.685 19.368V20.392H148.037V22.76H149.685V29H153.205Z" fill="white"/>
<defs>
<linearGradient id="paint0_linear_672_106" x1="13.2917" y1="8" x2="13.2917" y2="36" gradientUnits="userSpaceOnUse">
<stop stop-color="#ADFF00"/>
<stop offset="0.4375" stop-color="#00FF85"/>
<stop offset="1" stop-color="#8000FF"/>
</linearGradient>
<clipPath id="clip0_672_106">
<rect width="24.5" height="28" fill="white" transform="translate(1.16675 8)"/>
</clipPath>
</defs>
</svg>
