<svg xmlns="http://www.w3.org/2000/svg" width="90.687" height="38.531" viewBox="0 0 90.687 38.531">
  <defs>
    <style>
      .cls-1 {
        fill: #fff;
        fill-rule: evenodd;
      }
    </style>
  </defs>
  <path id="Bilóg" class="cls-1" d="M372.977,70.323a12.46,12.46,0,0,0,5.331-1.019,7.54,7.54,0,0,0,3.271-2.775,7.329,7.329,0,0,0,1.109-4,6.994,6.994,0,0,0-.881-3.588,6.478,6.478,0,0,0-2.294-2.349,6.362,6.362,0,0,0-3.023-.909V55.405a7.453,7.453,0,0,0,2.624-1.123,5.66,5.66,0,0,0,1.811-2.039,6.1,6.1,0,0,0,.661-2.9,6.8,6.8,0,0,0-1.047-3.754,6.912,6.912,0,0,0-3.126-2.555,12.827,12.827,0,0,0-5.193-.923h-11.3v28.21h12.052Zm-6.088-12.369h5a5.571,5.571,0,0,1,2.473.51,3.842,3.842,0,0,1,1.6,1.405,3.786,3.786,0,0,1,.565,2.066,3.164,3.164,0,0,1-1.143,2.555,5.623,5.623,0,0,1-3.636.957h-4.863V57.954Zm0-11.019h4.532a4.541,4.541,0,0,1,3.065.937,3.106,3.106,0,0,1,1.081,2.466,3.258,3.258,0,0,1-.558,1.915,3.63,3.63,0,0,1-1.515,1.233,5.234,5.234,0,0,1-2.183.434h-4.422V46.934ZM392.2,70.323V49.166h-5.868V70.323H392.2Zm-0.682-24.759a2.822,2.822,0,0,0,0-4.187,3.3,3.3,0,0,0-4.476,0,2.822,2.822,0,0,0,0,4.187A3.3,3.3,0,0,0,391.519,45.564Zm5.532-3.45v28.21h5.868V42.113h-5.868Zm25.821,27.252a9.26,9.26,0,0,0,3.6-3.829,13.55,13.55,0,0,0,0-11.446,9.262,9.262,0,0,0-3.6-3.829,11.9,11.9,0,0,0-11.088,0,9.268,9.268,0,0,0-3.6,3.829,13.56,13.56,0,0,0,0,11.446,9.267,9.267,0,0,0,3.6,3.829A11.9,11.9,0,0,0,422.872,69.366Zm-7.989-4.008a5.039,5.039,0,0,1-1.5-2.28,11.024,11.024,0,0,1,0-6.584,5.088,5.088,0,0,1,1.5-2.286,3.711,3.711,0,0,1,2.473-.84,3.611,3.611,0,0,1,2.438.84,5.183,5.183,0,0,1,1.481,2.286,11.045,11.045,0,0,1,0,6.584,5.132,5.132,0,0,1-1.481,2.28,3.628,3.628,0,0,1-2.438.833A3.729,3.729,0,0,1,414.883,65.357Zm4.484-18.919,4.2-6.267h-5.427l-2.92,6.267h4.146Zm27.286,31.343a8,8,0,0,0,3.657-2.734,7.475,7.475,0,0,0,1.323-4.518V49.166h-5.827v3.554h-0.22a8.219,8.219,0,0,0-1.137-1.742,5.884,5.884,0,0,0-1.935-1.488,6.614,6.614,0,0,0-2.975-.6,8.009,8.009,0,0,0-4.277,1.2,8.4,8.4,0,0,0-3.12,3.609,13.707,13.707,0,0,0-1.171,6.006,12.927,12.927,0,0,0,1.15,5.806,7.79,7.79,0,0,0,3.1,3.4,8.6,8.6,0,0,0,4.332,1.109,7.621,7.621,0,0,0,2.892-.5,5.842,5.842,0,0,0,1.984-1.281,5.576,5.576,0,0,0,1.157-1.667h0.248v3.871a3.625,3.625,0,0,1-1.247,3.106,5.144,5.144,0,0,1-3.161.93,6.132,6.132,0,0,1-2.169-.337,3.878,3.878,0,0,1-1.426-.888,3.554,3.554,0,0,1-.785-1.185l-5.427.73a6.472,6.472,0,0,0,1.556,3,8.173,8.173,0,0,0,3.23,2.114,13.672,13.672,0,0,0,4.883.778A14.615,14.615,0,0,0,446.653,77.782Zm-7.672-12.893a4.472,4.472,0,0,1-1.5-2.052,8.706,8.706,0,0,1-.517-3.161,9.137,9.137,0,0,1,.51-3.182,4.756,4.756,0,0,1,1.5-2.156,4.212,4.212,0,0,1,4.849-.021,4.716,4.716,0,0,1,1.515,2.128,9.04,9.04,0,0,1,.523,3.23,8.613,8.613,0,0,1-.53,3.189,4.481,4.481,0,0,1-1.515,2.039A4.438,4.438,0,0,1,438.981,64.889Z" transform="translate(-360.938 -40.156)"/>
</svg>
