<svg width="196" height="196" viewBox="0 0 196 196" fill="none" xmlns="http://www.w3.org/2000/svg">
<g clip-path="url(#clip0_638_294)">
<rect width="196" height="196" rx="36" fill="#73EE07"/>
<path d="M49 111L16 151.5L4 163V149.5L40.5 52.5L43.5 29.5H33L22 20.5L57 12C67.3333 11.3333 88 9.7 88 8.5C88 7.3 92.6667 -6 95 -12.5L116.5 -15L141 20.5L153.5 -12.5L171 -17.5L159.5 68L104 78.5V106.5L49 111Z" fill="white"/>
<path d="M60.5 111L100 142L140.5 137.5L146 149.5L123 161.5L109 175.5L125 214.5L209.5 185.5V149.5L170 152L166.5 134.5L184.5 127L181 117L200.5 115L186.5 85L189.5 72L186.5 14L194 0L170 -8L153 78V97.5L60.5 111Z" fill="white"/>
<path d="M145 72L153.5 100L104.5 102.5L100 78.5L145 72Z" fill="white"/>
<path d="M59.0185 943.686C57.3711 938.992 55.298 934.995 54.8225 930.836C54.5234 928.29 56.6611 925.458 57.6968 922.757C59.4943 924.7 61.1788 926.745 62.742 928.882C63.6675 930.289 63.9761 932.108 65.6709 933.619C65.7334 931.798 65.2641 929.71 65.981 928.189C67.0982 925.816 68.6922 922.609 70.7365 922.046C72.7808 921.482 76.0271 923.278 77.7762 925.008C80.6616 927.858 82.7475 931.485 86.7429 933.972C86.5127 932.125 86.2819 930.293 86.0825 928.446C85.4993 923.372 88.5157 921.961 92.8577 921.105C95.5654 920.58 99.0215 919.415 100.375 917.36C103.817 912.114 109.662 907.538 107.435 899.919C121.564 876.058 119.349 848.73 121.408 822.987C124.594 783.324 123.171 743.286 123.041 703.401C123.036 699.954 118.667 695.738 115.275 693.241C107.739 687.603 105.701 684.859 111.621 678.555C122.003 667.473 118.122 655.329 117.102 643.19C114.675 614.371 112.248 585.568 109.635 556.773C107.74 535.902 105.782 515.029 103.437 494.189C101.934 480.798 99.3145 467.507 98.0284 454.092C97.5481 449.175 95.4326 447.309 91.3858 446.32C87.9214 445.475 84.2196 445.24 81.0379 443.816C78.6483 442.73 74.9862 439.991 75.2298 438.3C76.6529 423.416 69.4785 413.123 58.1742 405.16C53.3444 401.764 50.2412 398.952 55.3696 394.553C52.0827 391.24 47.2594 388.555 46.9348 385.406C46.6101 382.257 50.8426 378.739 53.3363 374.991C52.1724 374.224 51.3695 373.748 50.6161 373.182C47.7089 370.964 44.8331 368.732 41.942 366.5C44.8511 364.157 47.9398 361.991 50.6397 359.441C54.3947 355.875 59.0516 352.603 61.2444 348.165C72.027 326.307 82.9187 304.422 92.2089 281.911C100.303 262.264 106.324 241.773 113.23 221.637C115.171 215.969 111.148 213.836 107.11 212.152C97.2912 207.734 96.8138 204.982 104.869 197.715C107.342 195.481 109.979 193.423 113.321 190.632C110.254 186.77 107.481 182.873 104.263 179.361C101.641 176.489 101.22 173.893 104.436 171.639C114.798 164.266 125.353 157.147 135.715 149.774C137.629 148.138 139.384 146.325 140.956 144.358C138.378 143.79 135.744 142.633 133.281 142.78C122.059 143.678 110.888 145.335 99.6622 145.892C96.5653 146.049 92.9628 143.823 89.9626 142.066C73.6615 132.417 57.8225 121.918 41.1089 113.028C27.7497 105.938 28.137 107.714 39.4361 97.374C61.0712 77.2801 81.8905 56.1844 103.001 35.6087C106.442 31.9305 110.323 28.6893 114.555 25.958C110.658 42.6421 97.5865 53.2918 87.0367 68.3717C109.234 54.4183 129.683 41.8424 153.555 37.6385L155.092 40.149L147.227 48.1642L156.038 53.1041C157.535 41.9332 160.068 29.3914 160.749 16.755C162.279 -12.0364 162.729 -40.8957 163.965 -69.6972C164.317 -79.9489 165.334 -90.1933 166.564 -100.369C166.882 -102.862 169.37 -105.095 170.857 -107.455C173.347 -105.685 177.367 -104.372 178.031 -102.092C180.878 -92.2719 183.843 -82.2772 184.732 -72.1683C187.406 -42.0114 188.639 -11.7495 191.454 18.3813C192.797 32.8339 196.061 47.1516 199.128 61.3851C200.38 67.2402 200.652 71.9023 196.567 77.0021C185.878 90.2687 191.386 97.7693 199.187 106.462C201.555 109.093 202.822 112.692 204.6 115.845C200.941 117.079 197.309 118.408 193.654 119.519C192.158 119.739 190.642 119.796 189.134 119.688C189.783 121.04 190.079 121.869 190.58 122.582C192.283 125.206 194.049 127.818 195.781 130.489C192.64 131.927 189.668 134.314 186.358 134.803C181.622 135.429 176.702 134.672 171.916 134.508C173.01 147.638 173.009 147.669 186.76 146.07C205.989 143.809 223.152 150.411 239.793 158.712C244.929 161.299 245.115 164.907 240.737 169.039C236.36 173.17 229.829 177.444 228.881 182.543C228.124 186.583 234.325 191.928 237.421 196.748C243.089 205.445 242.449 207.417 233.844 213.119C229.274 216.131 225.32 220.076 219.766 224.708C223.006 227.981 226.011 231.477 228.759 235.172C230.627 237.848 231.599 241.047 231.537 244.31C228.003 282.833 236.34 320.496 239.145 358.541C239.229 361.107 240.009 363.602 241.401 365.76C248.44 375.059 248.612 376.348 242.243 386.254C241.442 387.525 240.747 388.862 240.023 390.151C250.618 396.698 250.773 397.599 244.535 408.19C243.09 410.66 243.162 413.97 242.078 416.716C238.682 425.58 233.688 428.33 221.943 427.803L225.981 435.809L197.554 448.405C197.606 449.149 197.509 449.733 197.682 450.079C205.463 462.527 205.91 474.707 198.957 488.133C191.159 503.199 193.208 520.505 190.532 536.767C184.488 574.137 178.228 611.468 172.015 648.801C171.897 649.555 171.44 650.235 171.276 650.987C168.097 665.237 168.097 665.237 181.037 672.375C190.321 677.501 191.312 680.132 188.753 690.293C187.337 695.979 185.746 701.798 185.717 707.578C185.698 710.839 188.488 714.227 190.311 717.397C193.227 722.521 197.984 727.136 199.28 732.606C208.724 772.687 217.683 812.922 226.659 853.126C229.619 866.413 231.377 880.045 235.305 893.026C237.818 901.335 237.034 910.66 243.921 918.054C250.13 924.937 255.407 932.607 259.616 940.867C263.968 949.163 266.979 958.262 270.215 967.122C271.621 971.174 270.218 974.218 265.451 974.842C258.589 975.735 251.701 976.441 244.875 977.598C223.606 981.196 202.462 985.633 181.125 988.502C155.736 991.881 130.212 994.219 104.704 996.558C78.3436 998.961 51.998 1000.93 25.6529 1002.89C20.0113 1003.33 14.3509 1003.41 8.63301 1003.37C3.33253 1003.33 1.73136 1001.34 4.64599 996.137C12.5814 982.018 19.8651 967.522 28.0885 953.568C29.9264 950.462 34.2784 947.968 37.9448 946.981C44.6697 945.156 51.6088 944.745 59.0185 943.686ZM127.286 216.091C135.495 261.061 135.335 304.878 132.627 349.534C135.229 349.919 137.794 350.525 140.294 351.343C142.927 352.629 145.459 354.111 147.87 355.777C146.124 358.02 144.789 360.881 142.557 362.396C135.641 367.09 128.341 371.275 121.234 375.668C124.243 377.639 127.601 379.019 131.126 379.733C137.552 381.67 138.446 384.885 133.726 389.561C131.021 392.25 127.897 394.539 124.984 396.99C135.198 407.898 119.725 407.444 118.24 413.329C120.297 420.958 123.228 428.772 124.374 436.818C125.52 444.865 128.718 447.618 136.943 449.353C164.246 455.083 187.053 444.52 210.342 432.073C205.657 426.254 211.37 415.63 200.304 413.333C197.236 416.061 194.015 418.613 190.659 420.978C188.937 422.063 185.782 423.006 184.435 422.171C175.761 416.85 167.349 411.073 158.937 405.328C153.621 401.683 152.163 396.408 153.776 390.404C155.974 382.21 157.777 373.816 161.043 366.045C163.586 359.949 161.944 351.948 169.013 347.77C169.471 347.492 168.6 344.479 167.911 342.94C165.048 336.303 166.507 333.432 173.738 333.046C177.192 332.856 180.655 333.284 186.09 333.47C183.136 329.474 181.336 327.402 179.917 325.081C177.516 321.165 175.338 317.087 173.079 313.083L186.954 309.201C185.801 284.274 179.869 258.504 182.097 231.87C184.627 233.379 186.464 235.266 186.777 237.379C189.891 258.353 192.584 279.406 195.774 300.384C197.041 308.512 198.949 316.429 188.458 320.768C190.762 324.356 192.492 327.09 194.329 329.873C198.366 336.087 196.663 339.785 189.165 340.702C185.952 341.102 182.705 341.129 178.461 341.37C181.367 346.756 183.876 351.14 186.084 355.698C189.23 362.206 188.126 364.193 181.108 365.559C170.87 367.511 160.499 385.039 163.685 395.351C164.343 397.013 165.52 398.419 167.04 399.361C173.858 403.831 180.822 408.089 187.903 412.552C190.481 409.951 192.496 407.995 194.42 405.974C200.754 399.329 202.922 399.218 209.913 404.961C213.511 408.265 217.355 411.291 221.412 414.012C223.335 415.175 227.678 415.649 228.66 414.508C232.96 409.477 236.418 403.738 240.632 397.607C225.813 396.139 225.658 395.686 232.424 381.867C231.052 376.812 229.63 373.208 229.17 369.482C227.333 353.219 225.868 336.908 224.093 320.632C221.753 298.741 218.486 276.849 221.856 254.783C222.914 247.832 221.965 241.709 217.11 236.334C211.824 230.479 207.847 222.49 201.389 218.79C189.47 212.074 176.379 206.647 161.916 212.797C159.171 213.94 155.838 213.764 152.753 214.029C144.459 214.749 136.338 215.366 127.27 216.09L127.286 216.091ZM121.04 896.707C125.061 899.349 130.842 901.155 132.447 904.827C133.792 907.965 130.323 913.117 129.105 917.079C134.893 915.979 142.564 916.304 142.191 904.667C141.938 897.177 144.903 889.612 146.306 882.055C153.11 845.53 160.205 809.078 166.532 772.475C171.239 745.23 174.332 717.714 179.438 690.56C180.892 682.881 179.442 679.647 172.76 677.532C171.553 677.093 170.378 676.572 169.243 675.974C159.98 671.575 157.836 667.389 159.983 657.524C161.342 651.264 163.162 645.081 164.244 638.781C170.573 601.684 177.824 564.711 182.475 527.401C184.48 511.348 185.036 495.152 192.867 480.921C198.852 470.044 196.354 461.302 190.087 451.132C177.635 460.86 162.997 459.94 148.446 458.729C149.457 477.468 150.851 478.737 167.912 477.05C171.014 476.755 173.974 475.62 177.022 475.539C179.726 475.712 182.407 476.135 185.032 476.803C185.414 477.837 185.797 478.855 186.192 479.935C184.78 480.536 183.354 481.12 181.941 481.736C170.72 486.669 159.25 485.78 148.161 481.89C145.58 480.998 143.467 476.35 142.745 473.064C141.797 468.703 142.423 463.979 142.37 459.232L113.028 454.39C126.858 505.381 130.689 556.322 132.836 607.22C134.781 653.659 134.105 700.349 133.033 746.886C132.277 779.244 129.127 811.566 126.61 843.879C125.176 861.343 122.904 878.902 121.04 896.707ZM226.974 897.531C225.629 891.688 224.564 888.019 223.796 884.299C213.516 834.327 203.393 784.314 192.787 734.408C191.75 729.503 187.755 725.223 185.145 720.651C182.786 726.904 181.232 733.432 180.52 740.077C177.995 757.813 175.549 775.459 172.882 793.252C171.261 804.016 170.792 814.048 175.673 824.974C186.494 849.258 195.196 874.475 205.118 900.181L226.974 897.531ZM175.012 -44.7866L173.307 -44.6596C173.113 -42.1467 172.857 -39.6514 172.724 -37.1364C170.738 0.305877 168.782 37.7492 166.857 75.1935C166.519 81.8905 165.745 87.7688 156.142 85.6459C157.09 89.5429 157.666 92.5769 158.586 95.499C160.216 100.702 158.321 103.219 153.011 103.902C132.227 106.403 111.452 109.106 90.6391 111.56C84.0115 112.353 77.3082 112.648 69.2969 113.223C80.1097 120.643 89.5287 127.243 99.1264 133.585C100.351 134.4 102.451 134.008 104.153 133.959C115.929 133.59 127.709 133.083 139.482 132.807C145.098 132.675 148.198 135.564 150.018 141.083C153.397 151.633 156.446 161.862 147.679 171.392C147.197 171.932 147.374 173.082 147.13 174.774L166.388 168.093C164.004 157.392 161.897 147.179 159.369 137.061C158.004 131.804 159.511 129.337 164.989 128.69C169.803 128.067 174.522 126.59 180.271 125.258C177.652 123.615 175.168 121.767 172.84 119.731C171.007 117.551 169.355 115.225 167.901 112.776C170.708 112.053 173.523 110.65 176.302 110.746C181.613 110.928 186.879 111.99 193.974 112.898C187.491 104.066 182.148 97.1738 177.343 89.8828C176.432 88.5067 177.405 85.3713 178.337 83.4557C180.249 79.5487 183.088 76.0755 184.909 72.1191C186.219 69.4507 186.668 66.4415 186.194 63.5069C178.69 36.2757 177.158 8.39943 176.559 -19.6303C176.167 -28.0064 175.436 -36.4404 175.012 -44.7866ZM117.318 445.588C114.359 434.975 112.394 426.483 109.568 418.302C107.726 412.967 107.743 408.856 112.941 406.052C111.939 404.162 109.997 401.761 110.48 401.191C114.588 395.891 119.103 390.914 123.562 385.749C122.66 385.683 121.777 385.454 120.957 385.073C117.726 382.828 112.601 380.829 112.004 377.964C111.407 375.099 115.243 370.98 118.094 368.527C122.475 364.736 127.703 361.932 133.24 358.227C130.346 356.999 128.209 356.2 126.156 355.217C119.541 352.037 119.151 349.891 123.145 343.876C124.407 341.716 125.063 339.255 125.043 336.753C125.35 315.664 125.719 294.577 125.5 273.501C125.401 263.326 124.049 253.171 123.27 243.004C120.104 249.681 119.051 256.477 117.324 263.096C110.299 289.89 102.997 316.612 96.0168 343.424C95.1919 346.566 95.3586 349.887 96.4941 352.931C103.077 368.29 102.965 369.306 89.3031 379.58C88.262 380.237 87.1612 380.795 86.0153 381.245C89.0683 386.42 91.4529 390.351 93.7427 394.34C97.2142 400.38 98.932 405.725 91.3557 410.736C86.9729 413.677 84.3979 418.442 90.3353 423.345C93.3436 425.767 93.0698 428.339 89.5234 430.783C85.4228 433.61 86.3724 436.116 90.9352 437.386C95.4979 438.655 100.437 439.768 105.119 441.165C108.437 442.238 111.665 443.647 117.256 445.586L117.318 445.588ZM22.8561 982.603C26.3076 982.474 29.2565 982.575 32.1447 982.195C56.2578 979.066 80.3954 976.123 104.447 972.544C115.758 970.861 126.936 968.076 138.08 965.414C139.81 964.994 142.601 962.06 142.31 961.076C139.356 951.206 139.943 939.957 133.162 933.078C123.303 933.898 114.513 935.992 106.28 934.921C98.5844 933.946 95.7563 933.926 97.8988 942.656C98.6046 945.509 96.334 949.063 95.4341 952.31C92.1279 951.361 88.771 950.535 85.5329 949.404C84.4334 949.01 83.5637 946.878 82.7412 946.974C80.5371 947.238 76.6769 948.017 76.488 949.016C75.4632 956.354 71.9016 953.387 66.9541 953.418C56.1311 953.495 45.3464 956.51 34.5402 958.349C34.3704 958.343 34.248 958.756 34.1319 958.984L22.8561 982.603ZM180.463 164.233C184.365 163.579 187.467 162.387 190.375 162.765C193.284 163.143 195.985 165.06 198.787 166.3C196.674 168.391 194.925 171.624 192.394 172.402C178.222 176.831 164.014 181.398 149.517 184.486C137.059 187.15 133.483 198.126 125.906 205.857C139.286 206.332 152.683 205.837 165.992 204.374C180.928 202.46 195.771 201.455 210.14 206.137C218.517 208.867 222.939 204.351 228.307 200.176C216.315 184.771 216.315 184.771 230.869 164.712C214.774 153.122 196.428 153.512 177.034 154.269L180.463 164.233ZM152.208 971.278C153.125 971.215 154.037 971.096 154.94 970.924C182.448 963.938 209.954 956.984 237.419 949.874C242.3 948.604 247.02 946.664 252.166 944.893C247.226 936.16 243.267 929.021 239.15 921.955C229.722 905.725 226.167 904.83 209.863 913.7C204.161 916.796 199.753 920.046 203.88 927.7L198.394 928.083C198.734 931.697 199.033 934.69 199.317 937.668L187.829 936.423C186.904 938.586 185.822 941.734 184.27 944.633C183.429 946.15 181.314 948.782 180.566 948.525C172.406 945.771 168.135 953.09 161.956 955.228C154.198 957.883 151.225 962.99 152.146 971.276L152.208 971.278ZM168.043 827.958C163.682 847.795 158.807 865.094 156.362 882.709C154.657 895.017 143.493 908.623 159.702 920.494C155.764 923.095 152.705 925.278 149.501 927.208C145.729 929.475 142.178 931.594 145.16 934.788L173.679 938.859C171.119 931.475 169.18 926.709 167.913 921.766C167.464 919.988 168.557 916.068 169.145 916.027C175.979 915.637 182.644 913.755 188.672 910.514C188.83 910.427 189.147 910.639 189.408 910.694C196.264 911.811 197.358 910.565 195.305 903.724C192.945 895.915 190.774 888.018 187.96 880.378C181.695 863.407 175.114 846.642 167.981 827.956L168.043 827.958ZM58.2172 385.453C61.9896 388.581 68.9471 390.335 64.1641 397.73C63.9033 398.123 65.2809 399.87 66.1807 400.674C70.1076 404.256 74.1463 407.734 78.1839 411.242C87.0782 401.608 87.0788 401.593 80.3399 391.221C79.4433 389.659 78.4301 388.167 77.3089 386.758C73.3303 382.432 74.4835 379.009 78.8997 375.992C80.3727 374.961 81.728 373.755 83.1712 372.692C91.4032 366.591 91.451 365.649 86.8285 356.216C85.3863 353.199 83.7588 349.278 84.4936 346.336C87.3594 334.903 91.1602 323.703 94.593 312.413C97.766 301.939 100.924 291.459 104.066 280.973C93.396 299.558 84.4348 318.788 75.52 338.021C70.7784 348.261 69.6212 360.803 56.794 365.68C64.9741 372.794 65.012 373.49 58.2172 385.453ZM18.604 990.742C23.8701 999.888 31.5416 997.957 38.4748 997.267C59.9261 995.129 81.3459 992.557 102.758 990.2C114.505 988.873 126.278 987.7 137.949 985.875C140.265 985.522 142.176 982.527 144.308 980.745C141.692 979.527 138.963 977.068 136.467 977.276C109.882 979.455 83.294 981.741 56.7787 984.602C44.1516 985.9 31.6946 988.548 18.604 990.742ZM152.323 980.526C152.424 981.642 152.54 982.759 152.641 983.875C154.774 984.335 156.993 985.431 159.028 985.146C170.678 983.49 182.332 981.695 193.905 979.589C213.241 976.048 232.565 972.368 251.807 968.407C254.438 967.864 258.667 965.35 258.676 963.743C258.688 958.874 254.612 957.838 250.322 958.525C244.23 959.475 238.098 960.238 232.114 961.64C213.213 966.061 194.377 970.794 175.487 975.324C167.743 977.113 160.051 978.751 152.325 980.479L152.323 980.526ZM108.989 100.705L115.435 93.3778L121.769 98.9957L146.146 96.293C145.168 88.3296 144.385 81.8724 143.526 74.9179L106.112 80.4963C107.096 87.4087 108.007 93.7467 108.991 100.659L108.989 100.705ZM144.668 153.729L142.076 152.713C133.464 158.6 124.675 164.265 116.362 170.471C115.109 171.402 114.657 175.127 115.435 176.777C118.032 182.168 121.369 187.183 125.387 193.968C132.819 179.646 141.52 167.981 144.67 153.683L144.668 153.729ZM95.6064 78.5433L57.17 100.858L99.7055 102.319C98.3441 94.2495 97.1575 87.392 95.608 78.497L95.6064 78.5433ZM140.316 50.8947L112.954 68.0714L113.749 70.1391L148.139 64.3796L140.316 50.8947ZM116.348 530.989C114.654 503.802 111.205 477.298 102.829 451.598C107.331 478.03 111.838 504.479 116.35 530.942L116.348 530.989ZM119.095 550.019L117.818 550.315C118.608 562.708 119.393 575.101 120.174 587.494L121.304 587.425C120.56 574.899 119.803 562.414 119.035 549.97L119.095 550.019ZM150.455 950.304L159.586 944.573L147.803 939.748C148.801 943.554 149.462 946.359 150.456 950.257L150.455 950.304Z" fill="#0D0E10"/>
<path d="M80.6282 5.60984C81.8062 -3.48516 83.1504 -11.5697 83.8626 -19.7068C86.0356 -44.2716 87.9151 -68.8465 89.9954 -93.4145C90.2097 -96.4901 90.802 -99.5277 91.759 -102.458C92.2906 -103.986 94.1075 -105.129 95.3585 -106.447C96.2627 -104.87 97.8154 -103.271 97.9546 -101.473C99.4003 -84.157 100.598 -66.8189 101.947 -48.4707C107.903 -54.913 111.053 -54.8203 113.793 -48.6359C120.436 -33.6766 126.67 -18.515 133.22 -3.52812C137.936 7.22231 142.998 17.8145 147.903 28.4787C148.478 29.7351 149.006 31.0207 149.564 32.3074L147.499 33.9214L131.829 16.7045C132.024 17.3525 132.095 18.0314 132.039 18.7057C131.267 22.2654 130.373 25.8054 129.522 29.4396C126.96 26.6002 122.978 24.1757 122.087 20.8836C116.587 0.986248 111.79 -19.1188 106.727 -39.1402C106.369 -40.7509 105.412 -42.1652 104.05 -43.0966C105.804 -24.8736 107.559 -6.65069 109.494 13.5261C111.796 16.2639 119.755 17.2019 120.509 26.7497C91.6475 7.92046 62.8034 10.176 32.1921 22.0319C46.171 25.0315 61.189 19.828 72.0307 32.2572C70.5641 33.1034 69.9397 33.7312 69.304 33.7866C43.6781 34.6069 18.0488 35.3757 -7.58396 36.0927C-12.2259 36.3443 -16.8815 36.0964 -21.4704 35.3531C-23.4824 34.9748 -25.0618 32.3546 -26.8306 30.7481C-25.3109 29.2545 -24.0048 26.7798 -22.1942 26.27C6.60393 19.051 35.4159 11.8788 64.3637 5.25226C69.3813 4.07976 75.0083 5.41685 80.6282 5.60984ZM102.145 9.22384C99.694 -7.18355 97.3833 -22.7205 94.9416 -38.9421C93.139 -23.3609 91.4221 -8.47235 89.6881 6.46198L102.145 9.22384Z" fill="#0D0E10"/>
<path d="M8.72256 146.418C14.9102 139.984 19.9962 133.218 31.4158 132.42C28.1307 138.057 25.9906 142.312 23.219 146.05C16.1758 155.794 8.87591 165.359 1.59097 174.94C0.360849 176.551 -1.08644 178.635 -2.81771 179.085C-5.13441 179.605 -7.55952 179.309 -9.68299 178.247C-10.7612 177.684 -11.6161 174.672 -11.0594 173.315C3.77238 133.923 18.7262 94.5766 33.8022 55.2755C34.1207 54.0355 34.7326 52.8902 35.5863 51.9361C37.6137 50.4306 39.7258 49.0425 41.9121 47.7789C41.9977 50.2396 42.8621 52.9743 42.0777 55.1115C31.4584 83.9153 20.6108 112.619 9.85476 141.356C9.37453 143.019 8.99643 144.709 8.72256 146.418V146.418Z" fill="#0D0E10"/>
<path d="M143.825 12.6335C144.123 3.9566 144.421 -4.73578 144.72 -13.4282C144.745 -14.1693 145.84 -15.4455 146.428 -15.4563C147.009 -15.4584 147.584 -15.3447 148.121 -15.122C148.657 -14.8992 149.144 -14.5717 149.552 -14.1588C154.291 -8.12212 152.192 6.66052 143.825 12.6335Z" fill="#0D0E10"/>
<path d="M102.052 9.22111L89.5976 6.39748C91.3316 -8.53685 93.0486 -23.4254 94.8511 -39.0066C97.3371 -22.7216 99.6477 -7.18469 102.052 9.22111Z" fill="#0D0E10"/>
<path d="M35.696 187.36C42.824 187.36 44.216 185.296 44.216 182.92V182.776C44.216 180.184 42.968 178.84 37.016 178.72L34.712 178.672C32.48 178.6 32 178.216 32 177.64V177.592C32 176.944 32.504 176.632 35.072 176.632H35.096C37.976 176.632 38.216 177.472 38.288 177.952H43.736V177.784C43.736 175.768 42.176 173.728 35.648 173.728H34.688C27.584 173.728 26.528 175.768 26.528 177.76V177.904C26.528 179.8 27.872 181.816 33.488 181.936L35.792 181.984C38.312 182.056 38.624 182.44 38.624 183.112V183.16C38.624 183.784 38.264 184.384 35.288 184.384H35.24C32.12 184.384 31.928 183.112 31.928 182.632H26.408V182.776C26.408 184.432 27.176 187.36 34.712 187.36H35.696ZM55.0316 187V183.448H53.5676C52.6316 183.448 52.4876 183.016 52.4876 182.32V177.64H55.0316V174.088H52.4876V170.32H47.2076V174.088H44.6876V177.64H47.2076V183.328C47.2076 185.56 48.0716 187 50.3996 187H55.0316ZM74.7028 174.088H69.3508V180.184C69.3508 182.296 67.8387 183.688 65.5108 183.688C63.2308 183.688 62.1988 182.392 62.1988 180.472V174.088H56.7988V182.128C56.7988 184.552 58.5028 187.288 62.9428 187.288H63.1348C66.8788 187.288 68.7508 185.368 69.3988 184.768V187H74.7028V174.088ZM83.9161 187V177.64H88.4521V187H93.7321V177.64H96.8281V174.088H93.7321V173.368C93.7321 172.624 93.9001 172.312 94.7401 172.312H96.8281V169.144H92.9401C89.2201 169.144 88.4521 170.944 88.4521 172.552V174.088H83.9161V173.368C83.9161 172.624 84.0841 172.312 84.9241 172.312H86.9881V169.144H83.1241C79.4041 169.144 78.6361 170.944 78.6361 172.552V174.088H76.1641V177.64H78.6361V187H83.9161ZM101.718 182.8H95.9338V187H101.718V182.8Z" fill="#0D0E10"/>
<path d="M37.184 145.144H33.296C29.576 145.144 28.808 146.944 28.808 148.552V150.088H26.336V153.64H28.808V163H34.088V153.64H37.184V150.088H34.088V149.368C34.088 148.624 34.256 148.312 35.096 148.312H37.184V145.144ZM48.8632 163.36C56.8312 163.36 58.1032 159.664 58.1032 156.688V156.256C58.1032 153.328 56.7352 149.728 48.8632 149.728H47.1592C39.6712 149.728 37.8952 153.28 37.8952 156.256V156.688C37.8952 159.664 39.6952 163.36 47.1832 163.36H48.8632ZM48.0232 159.88C44.3752 159.88 43.3672 158.056 43.3672 156.544V156.424C43.3672 154.792 44.3752 153.16 48.0232 153.16H48.0472C51.6472 153.16 52.6792 154.816 52.6792 156.424V156.544C52.6792 158.056 51.6712 159.88 48.0232 159.88ZM63.0005 163L66.7205 159.304L70.5125 163H76.5605L69.8645 156.352L76.3445 150.088H70.3445L66.9605 153.472L63.5765 150.088H57.2645L63.7925 156.448L57.0485 163H63.0005ZM82.2193 163L85.9393 159.304L89.7313 163H95.7793L89.0833 156.352L95.5633 150.088H89.5633L86.1793 153.472L82.7953 150.088H76.4832L83.0113 156.448L76.2672 163H82.2193Z" fill="#0D0E10"/>
<path d="M45.23 139V136.928H44.376C43.83 136.928 43.746 136.676 43.746 136.27V133.54H45.23V131.468H43.746V129.27H40.666V131.468H39.196V133.54H40.666V136.858C40.666 138.16 41.17 139 42.528 139H45.23ZM46.2889 139H49.4109V135.444C49.4109 134.212 50.3209 133.4 51.7209 133.4C53.1069 133.4 53.7369 134.114 53.7369 135.276V139H56.8869V134.24C56.8869 132.784 55.8229 131.3 53.2189 131.3H53.1209C50.8809 131.3 49.7469 132.392 49.4109 132.728V128.584H46.2889V139ZM63.4617 133.008C65.0437 133.008 65.7717 133.484 65.9817 134.282H60.9417C61.1797 133.484 61.8797 133.008 63.4477 133.008H63.4617ZM69.0897 136.34H66.0097C65.9677 136.522 65.6317 137.306 63.5597 137.306H63.5457C61.8237 137.306 61.0677 136.718 60.8857 135.836H69.1317V135.318C69.1317 133.484 68.3197 131.258 63.8957 131.258H63.0417C58.9677 131.258 57.8197 133.12 57.8197 135.052V135.36C57.8197 137.334 59.1077 139.21 63.1257 139.21H63.9237C68.4177 139.21 69.0897 137.376 69.0897 136.354V136.34Z" fill="#0D0E10"/>
<path d="M17.416 46.798L7 46.798L7 50.018L13.902 50.018L7 57.088L7 60.308L17.416 60.308L17.416 57.088L10.864 57.088L17.416 50.438L17.416 46.798ZM17.416 61.9054L7 61.9054L7 73.0214L9.422 73.0214L9.422 65.1254L11.13 65.1254L11.13 72.6994L13.51 72.6994L13.51 65.1254L15.05 65.1254L15.05 72.8814L17.416 72.8814L17.416 61.9054ZM7 78.3115L7 81.6015L14.952 81.6015L14.952 86.0955L17.416 86.0955L17.416 73.8315L14.952 73.8315L14.952 78.3115L7 78.3115Z" fill="#0D0E10"/>
</g>
<defs>
<clipPath id="clip0_638_294">
<rect width="196" height="196" rx="36" fill="white"/>
</clipPath>
</defs>
</svg>
