<svg width="239" height="730" viewBox="0 0 239 730" fill="none" xmlns="http://www.w3.org/2000/svg">
<g clip-path="url(#clip0_638_31)">
<path d="M77.8287 685.19C76.7623 682.152 75.4204 679.564 75.1126 676.872C74.919 675.224 76.3028 673.391 76.9731 671.643C78.1367 672.901 79.2271 674.224 80.239 675.607C80.8381 676.518 81.0378 677.696 82.1349 678.674C82.1754 677.495 81.8716 676.144 82.3356 675.159C83.0588 673.623 84.0906 671.547 85.4139 671.182C86.7372 670.817 88.8385 671.98 89.9708 673.1C91.8386 674.945 93.1888 677.293 95.7751 678.902C95.626 677.707 95.4766 676.521 95.3476 675.326C94.9701 672.041 96.9226 671.127 99.7332 670.573C101.486 670.233 103.723 669.48 104.599 668.149C106.827 664.753 110.611 661.791 109.169 656.859C118.315 641.414 116.881 623.724 118.214 607.06C120.276 581.386 119.355 555.469 119.271 529.651C119.268 527.419 116.44 524.691 114.244 523.074C109.366 519.425 108.047 517.648 111.879 513.568C118.599 506.394 116.087 498.533 115.427 490.676C113.856 472.021 112.285 453.376 110.594 434.737C109.367 421.227 108.099 407.716 106.582 394.226C105.609 385.557 103.913 376.954 103.08 368.27C102.769 365.087 101.4 363.88 98.7804 363.24C96.5379 362.692 94.1417 362.54 92.0821 361.619C90.5353 360.915 88.1648 359.143 88.3225 358.048C89.2436 348.413 84.5996 341.75 77.2822 336.596C74.1558 334.397 72.1471 332.577 75.4667 329.73C73.3391 327.585 70.2169 325.847 70.0068 323.809C69.7966 321.77 72.5363 319.493 74.1506 317.067C73.3971 316.571 72.8774 316.263 72.3897 315.896C70.5079 314.46 68.6464 313.016 66.7748 311.571C68.658 310.054 70.6573 308.652 72.405 307.001C74.8356 304.693 77.8501 302.575 79.2695 299.702C86.2492 285.554 93.2996 271.387 99.3132 256.815C104.553 244.097 108.45 230.833 112.92 217.799C114.177 214.13 111.573 212.75 108.959 211.66C102.603 208.8 102.294 207.018 107.509 202.314C109.109 200.868 110.816 199.536 112.979 197.729C110.994 195.23 109.199 192.707 107.116 190.434C105.419 188.574 105.146 186.894 107.228 185.435C113.935 180.662 120.768 176.054 127.475 171.281C128.714 170.223 129.85 169.049 130.868 167.776C129.199 167.408 127.494 166.659 125.9 166.755C118.636 167.336 111.405 168.408 104.138 168.769C102.133 168.87 99.8013 167.429 97.8592 166.292C87.3073 160.046 77.0545 153.25 66.2356 147.495C57.588 142.906 57.8388 144.055 65.1528 137.362C79.1574 124.355 92.634 110.7 106.299 97.3809C108.527 95 111.038 92.9019 113.778 91.1339C111.256 101.934 102.794 108.827 95.9652 118.589C110.334 109.557 123.571 101.416 139.023 98.6948L140.018 100.32L134.927 105.508L140.631 108.706C141.599 101.475 143.239 93.3564 143.68 85.1767C144.67 66.5397 144.962 47.8587 145.762 29.2152C145.99 22.5791 146.648 15.9477 147.444 9.3612C147.65 7.7473 149.26 6.30172 150.223 4.77387C151.835 5.91986 154.437 6.76968 154.867 8.24529C156.71 14.6023 158.629 21.072 159.205 27.6156C160.936 47.1365 161.734 66.7254 163.556 86.2294C164.425 95.5848 166.538 104.853 168.523 114.066C169.334 117.856 169.51 120.874 166.865 124.175C159.946 132.763 163.512 137.618 168.562 143.245C170.094 144.948 170.915 147.278 172.065 149.319C169.697 150.118 167.346 150.978 164.98 151.697C164.011 151.84 163.03 151.877 162.054 151.807C162.474 152.681 162.666 153.218 162.99 153.68C164.093 155.379 165.235 157.069 166.357 158.798C164.324 159.729 162.399 161.274 160.257 161.591C157.192 161.996 154.006 161.506 150.908 161.4C151.617 169.899 151.616 169.919 160.517 168.884C172.965 167.42 184.075 171.694 194.846 177.067C198.171 178.742 198.291 181.077 195.457 183.752C192.624 186.426 188.397 189.193 187.783 192.494C187.293 195.108 191.306 198.568 193.311 201.689C196.98 207.318 196.565 208.594 190.996 212.285C188.037 214.235 185.478 216.789 181.883 219.787C183.98 221.906 185.925 224.169 187.704 226.561C188.913 228.293 189.542 230.364 189.502 232.476C187.215 257.412 192.611 281.792 194.427 306.419C194.481 308.08 194.986 309.695 195.887 311.092C200.443 317.111 200.555 317.946 196.432 324.358C195.914 325.181 195.464 326.046 194.995 326.88C201.854 331.118 201.954 331.702 197.916 338.557C196.981 340.156 197.027 342.299 196.326 344.076C194.127 349.814 190.894 351.594 183.292 351.253L185.905 356.436L167.505 364.589C167.538 365.07 167.475 365.448 167.587 365.672C172.624 373.73 172.913 381.615 168.413 390.305C163.365 400.058 164.691 411.26 162.959 421.787C159.046 445.977 154.995 470.142 150.973 494.308C150.896 494.796 150.601 495.236 150.494 495.722C148.436 504.947 148.436 504.947 156.813 509.567C162.822 512.886 163.464 514.589 161.808 521.166C160.891 524.846 159.861 528.613 159.842 532.355C159.83 534.466 161.636 536.659 162.816 538.711C164.703 542.027 167.783 545.015 168.621 548.556C174.735 574.501 180.534 600.545 186.344 626.57C188.26 635.171 189.398 643.995 191.941 652.397C193.568 657.776 193.06 663.812 197.519 668.598C201.538 673.054 204.953 678.019 207.678 683.366C210.495 688.735 212.444 694.626 214.539 700.361C215.449 702.984 214.541 704.954 211.455 705.358C207.013 705.936 202.554 706.393 198.136 707.142C184.368 709.471 170.682 712.343 156.87 714.2C140.435 716.387 123.913 717.901 107.401 719.415C90.3381 720.971 73.2842 722.246 56.2308 723.511C52.5788 723.796 48.9148 723.851 45.2136 723.824C41.7825 723.796 40.746 722.509 42.6327 719.142C47.7694 710.003 52.4842 700.619 57.8074 691.587C58.9971 689.576 61.8141 687.962 64.1874 687.323C68.5405 686.142 73.0323 685.876 77.8287 685.19ZM122.019 214.209C127.333 243.319 127.229 271.682 125.476 300.589C127.161 300.838 128.821 301.23 130.439 301.76C132.144 302.592 133.783 303.552 135.343 304.63C134.213 306.082 133.349 307.933 131.904 308.914C127.427 311.952 122.702 314.662 118.101 317.506C120.049 318.781 122.223 319.674 124.505 320.137C128.664 321.39 129.243 323.472 126.188 326.498C124.437 328.239 122.415 329.721 120.529 331.307C127.141 338.368 117.125 338.074 116.164 341.884C117.495 346.822 119.392 351.88 120.134 357.089C120.876 362.297 122.946 364.079 128.27 365.203C145.944 368.912 160.707 362.074 175.782 354.017C172.75 350.251 176.448 343.373 169.285 341.887C167.298 343.652 165.214 345.304 163.041 346.835C161.927 347.537 159.884 348.148 159.012 347.607C153.397 344.163 147.952 340.424 142.507 336.705C139.066 334.345 138.122 330.931 139.166 327.044C140.589 321.74 141.756 316.307 143.87 311.276C145.517 307.331 144.454 302.151 149.029 299.446C149.326 299.267 148.762 297.316 148.316 296.32C146.463 292.024 147.407 290.165 152.088 289.916C154.324 289.793 156.566 290.07 160.084 290.19C158.171 287.603 157.007 286.262 156.088 284.76C154.534 282.225 153.123 279.585 151.662 276.994L160.643 274.48C159.896 258.345 156.057 241.664 157.499 224.423C159.137 225.4 160.325 226.621 160.529 227.989C162.544 241.566 164.287 255.194 166.352 268.773C167.172 274.034 168.407 279.16 161.617 281.968C163.108 284.291 164.228 286.06 165.417 287.862C168.03 291.884 166.927 294.278 162.074 294.871C159.994 295.13 157.892 295.148 155.145 295.304C157.027 298.791 158.65 301.628 160.08 304.579C162.116 308.791 161.402 310.077 156.859 310.962C150.232 312.225 143.518 323.572 145.58 330.246C146.007 331.322 146.768 332.233 147.753 332.842C152.166 335.735 156.674 338.492 161.257 341.381C162.926 339.697 164.23 338.431 165.476 337.123C169.576 332.821 170.979 332.749 175.504 336.467C177.833 338.606 180.322 340.565 182.948 342.326C184.193 343.079 187.004 343.386 187.64 342.647C190.423 339.391 192.662 335.675 195.39 331.707C185.797 330.757 185.697 330.463 190.076 321.518C189.188 318.246 188.267 315.913 187.97 313.501C186.781 302.974 185.832 292.415 184.683 281.88C183.169 267.709 181.054 253.539 183.235 239.255C183.92 234.756 183.306 230.792 180.163 227.313C176.741 223.523 174.167 218.351 169.987 215.957C162.272 211.609 153.797 208.096 144.435 212.077C142.659 212.817 140.501 212.703 138.504 212.874C133.135 213.34 127.878 213.74 122.009 214.209L122.019 214.209ZM117.976 654.78C120.579 656.49 124.321 657.66 125.36 660.037C126.231 662.068 123.985 665.403 123.197 667.967C126.943 667.255 131.909 667.466 131.667 659.933C131.504 655.085 133.423 650.187 134.331 645.296C138.735 621.653 143.328 598.057 147.423 574.363C150.47 556.728 152.473 538.916 155.778 521.339C156.719 516.368 155.78 514.275 151.455 512.905C150.674 512.621 149.913 512.284 149.178 511.897C143.182 509.049 141.795 506.34 143.185 499.954C144.064 495.902 145.242 491.9 145.943 487.822C150.039 463.808 154.733 439.875 157.744 415.724C159.041 405.332 159.401 394.849 164.47 385.637C168.344 378.596 166.728 372.937 162.671 366.354C154.61 372.651 145.135 372.056 135.717 371.272C136.371 383.401 137.273 384.223 148.317 383.131C150.325 382.94 152.241 382.205 154.214 382.153C155.964 382.265 157.7 382.539 159.399 382.972C159.646 383.64 159.894 384.299 160.15 384.999C159.236 385.387 158.312 385.766 157.398 386.165C150.134 389.357 142.71 388.782 135.532 386.264C133.861 385.687 132.493 382.678 132.026 380.551C131.412 377.728 131.818 374.67 131.783 371.597L112.789 368.463C121.742 401.47 124.222 434.445 125.612 467.392C126.871 497.453 126.433 527.675 125.739 557.799C125.25 578.745 123.211 599.667 121.582 620.584C120.653 631.889 119.182 643.255 117.976 654.78ZM186.548 655.314C185.677 651.532 184.988 649.157 184.491 646.748C177.837 614.401 171.284 582.027 164.419 549.722C163.748 546.547 161.161 543.777 159.472 540.817C157.945 544.865 156.939 549.09 156.478 553.392C154.843 564.872 153.26 576.295 151.534 587.812C150.484 594.78 150.181 601.274 153.34 608.346C160.345 624.066 165.978 640.389 172.401 657.029L186.548 655.314ZM152.913 45.3401L151.809 45.4223C151.683 47.0489 151.518 48.6642 151.432 50.2922C150.146 74.529 148.88 98.7665 147.634 123.005C147.415 127.34 146.914 131.145 140.698 129.771C141.312 132.293 141.684 134.257 142.28 136.149C143.335 139.517 142.108 141.146 138.671 141.588C125.218 143.207 111.77 144.957 98.2971 146.545C94.007 147.058 89.6679 147.25 84.482 147.622C91.4813 152.425 97.5783 156.697 103.791 160.802C104.583 161.33 105.943 161.076 107.045 161.044C114.667 160.806 122.293 160.477 129.914 160.298C133.549 160.213 135.556 162.083 136.734 165.656C138.921 172.485 140.895 179.106 135.22 185.275C134.907 185.625 135.022 186.369 134.864 187.464L147.33 183.14C145.787 176.213 144.423 169.602 142.787 163.052C141.903 159.65 142.878 158.052 146.425 157.634C149.541 157.23 152.595 156.275 156.317 155.412C154.622 154.348 153.013 153.152 151.507 151.835C150.32 150.423 149.251 148.917 148.31 147.332C150.127 146.864 151.949 145.956 153.748 146.018C157.186 146.136 160.594 146.823 165.187 147.411C160.991 141.694 157.532 137.233 154.422 132.513C153.832 131.622 154.462 129.593 155.065 128.353C156.302 125.824 158.141 123.576 159.319 121.015C160.167 119.287 160.458 117.339 160.151 115.44C155.293 97.8127 154.302 79.768 153.914 61.624C153.66 56.2021 153.187 50.7427 152.913 45.3401ZM115.567 362.765C113.651 355.896 112.379 350.399 110.55 345.103C109.358 341.65 109.369 338.989 112.733 337.173C112.085 335.95 110.827 334.396 111.14 334.026C113.8 330.596 116.722 327.374 119.608 324.031C119.024 323.988 118.453 323.84 117.922 323.593C115.831 322.14 112.513 320.846 112.127 318.991C111.74 317.137 114.223 314.471 116.069 312.883C118.905 310.429 122.289 308.614 125.873 306.216C124 305.421 122.617 304.903 121.288 304.267C117.006 302.209 116.753 300.82 119.338 296.926C120.155 295.528 120.58 293.935 120.567 292.315C120.766 278.664 121.005 265.014 120.863 251.371C120.799 244.785 119.924 238.212 119.419 231.63C117.37 235.953 116.689 240.352 115.571 244.636C111.023 261.98 106.296 279.278 101.778 296.633C101.244 298.667 101.352 300.817 102.087 302.787C106.348 312.729 106.276 313.387 97.4323 320.038C96.7583 320.463 96.0458 320.824 95.3041 321.115C97.2803 324.465 98.8239 327.01 100.306 329.592C102.553 333.501 103.665 336.962 98.761 340.205C95.9239 342.109 94.2571 345.194 98.1004 348.367C100.048 349.935 99.8705 351.6 97.5749 353.182C94.9205 355.012 95.5352 356.634 98.4888 357.456C101.442 358.278 104.639 358.998 107.67 359.903C109.818 360.597 111.908 361.509 115.527 362.764L115.567 362.765ZM54.4203 710.382C56.6545 710.298 58.5634 710.364 60.4329 710.118C76.0416 708.092 91.6662 706.187 107.235 703.87C114.557 702.781 121.793 700.978 129.006 699.255C130.126 698.983 131.932 697.084 131.744 696.447C129.832 690.058 130.212 682.777 125.823 678.323C119.441 678.855 113.751 680.21 108.421 679.517C103.44 678.885 101.61 678.873 102.996 684.524C103.453 686.37 101.983 688.671 101.401 690.772C99.2608 690.159 97.0879 689.624 94.9918 688.891C94.2801 688.637 93.7171 687.257 93.1847 687.318C91.758 687.49 89.2592 687.994 89.1369 688.64C88.4735 693.39 86.1681 691.47 82.9655 691.49C75.9597 691.54 68.9786 693.491 61.9836 694.682C61.8737 694.678 61.7944 694.946 61.7193 695.093L54.4203 710.382ZM156.441 180.641C158.967 180.217 160.975 179.446 162.858 179.691C164.74 179.935 166.489 181.176 168.302 181.979C166.935 183.333 165.803 185.425 164.164 185.929C154.99 188.796 145.794 191.752 136.409 193.751C128.346 195.475 126.03 202.58 121.126 207.585C129.787 207.892 138.459 207.572 147.074 206.625C156.742 205.386 166.35 204.735 175.652 207.766C181.074 209.533 183.936 206.61 187.411 203.907C179.649 193.935 179.649 193.935 189.07 180.951C178.651 173.449 166.775 173.701 154.221 174.191L156.441 180.641ZM138.151 703.051C138.745 703.01 139.336 702.933 139.92 702.822C157.726 698.3 175.531 693.798 193.309 689.196C196.469 688.374 199.524 687.118 202.856 685.972C199.658 680.318 197.095 675.698 194.43 671.124C188.327 660.618 186.026 660.039 175.472 665.78C171.781 667.784 168.928 669.888 171.599 674.842L168.048 675.091C168.268 677.429 168.462 679.367 168.646 681.295L161.209 680.489C160.611 681.889 159.91 683.926 158.905 685.803C158.361 686.785 156.992 688.489 156.508 688.322C151.226 686.54 148.461 691.278 144.462 692.661C139.44 694.38 137.515 697.686 138.111 703.05L138.151 703.051ZM148.401 610.278C145.579 623.119 142.423 634.317 140.84 645.719C139.736 653.686 132.51 662.493 143.002 670.178C140.453 671.862 138.473 673.274 136.399 674.524C133.957 675.991 131.659 677.363 133.589 679.43L152.05 682.066C150.393 677.286 149.138 674.201 148.317 671.001C148.027 669.85 148.734 667.313 149.115 667.286C153.538 667.034 157.853 665.816 161.755 663.718C161.857 663.661 162.062 663.798 162.231 663.834C166.669 664.557 167.377 663.751 166.048 659.323C164.521 654.267 163.116 649.156 161.294 644.211C157.239 633.225 152.979 622.372 148.361 610.277L148.401 610.278ZM77.31 323.839C79.7519 325.864 84.2556 327 81.1595 331.786C80.9907 332.041 81.8824 333.172 82.4649 333.692C85.0068 336.011 87.6211 338.262 90.2347 340.533C95.9921 334.297 95.9925 334.287 91.6303 327.573C91.0499 326.562 90.3941 325.596 89.6683 324.684C87.0929 321.884 87.8394 319.668 90.6981 317.715C91.6515 317.048 92.5288 316.267 93.463 315.579C98.7917 311.63 98.8226 311.02 95.8304 304.914C94.8969 302.961 93.8434 300.423 94.319 298.518C96.1741 291.118 98.6344 283.868 100.857 276.56C102.91 269.78 104.954 262.996 106.989 256.208C100.082 268.238 94.281 280.686 88.5104 293.136C85.441 299.764 84.692 307.883 76.3887 311.04C81.6838 315.645 81.7084 316.096 77.31 323.839ZM51.6679 715.65C55.0767 721.571 60.0425 720.32 64.5305 719.874C78.4162 718.49 92.2815 716.825 106.142 715.3C113.746 714.44 121.367 713.681 128.922 712.5C130.42 712.271 131.658 710.332 133.038 709.179C131.344 708.39 129.578 706.799 127.962 706.934C110.753 708.344 93.5425 709.824 76.3788 711.676C68.2052 712.516 60.1416 714.23 51.6679 715.65ZM138.226 709.037C138.291 709.76 138.366 710.483 138.432 711.205C139.812 711.503 141.249 712.213 142.566 712.028C150.107 710.956 157.651 709.794 165.143 708.43C177.659 706.139 190.168 703.757 202.623 701.193C204.326 700.841 207.064 699.214 207.069 698.173C207.077 695.022 204.439 694.351 201.662 694.796C197.719 695.411 193.749 695.905 189.876 696.812C177.64 699.674 165.448 702.738 153.22 705.67C148.208 706.828 143.228 707.888 138.227 709.007L138.226 709.037ZM110.175 139.519L113.88 134.493L118.448 138.412L134.227 136.663C133.594 131.508 133.087 127.328 132.531 122.826L108.313 126.437C108.95 130.912 109.539 135.014 110.176 139.489L110.175 139.519ZM133.271 173.842L131.593 173.184C126.018 176.995 120.329 180.662 114.948 184.679C114.137 185.282 113.844 187.693 114.348 188.761C116.029 192.251 118.189 195.497 120.79 199.889C125.601 190.618 131.233 183.067 133.272 173.812L133.271 173.842ZM101.513 125.173L76.6321 139.618L104.166 140.563C103.285 135.34 102.517 130.901 101.514 125.143L101.513 125.173ZM130.454 107.276L112.742 118.394L113.256 119.733L135.517 116.005L130.454 107.276ZM114.939 418.046C113.842 400.448 111.61 383.292 106.188 366.656C109.102 383.766 112.02 400.886 114.94 418.016L114.939 418.046ZM116.717 430.365L115.89 430.556C116.402 438.579 116.91 446.601 117.415 454.623L118.147 454.578C117.665 446.47 117.175 438.388 116.678 430.333L116.717 430.365ZM137.017 689.474L142.927 685.765L135.3 682.641C135.946 685.105 136.374 686.92 137.018 689.444L137.017 689.474Z" fill="white"/>
<path d="M91.8167 77.9627C92.5792 72.0754 93.4493 66.8421 93.9103 61.5749C95.3169 45.6738 96.5335 29.7662 97.8801 13.863C98.0188 11.8721 98.4022 9.90588 99.0217 8.00873C99.3659 7.01996 100.542 6.27989 101.352 5.42718C101.937 6.44787 102.942 7.48297 103.032 8.64675C103.968 19.8555 104.743 31.0787 105.616 42.9556C109.472 38.7855 111.511 38.8455 113.284 42.8488C117.585 52.532 121.62 62.3463 125.86 72.0475C128.913 79.0064 132.189 85.8629 135.364 92.7659C135.737 93.5792 136.078 94.4114 136.44 95.2443L135.103 96.2891L124.96 85.1444C125.086 85.5638 125.132 86.0033 125.095 86.4398C124.596 88.744 124.017 91.0355 123.466 93.388C121.808 91.55 119.23 89.9806 118.653 87.8495C115.093 74.9698 111.988 61.9555 108.711 48.9954C108.479 47.9528 107.859 47.0373 106.978 46.4344C108.113 58.2303 109.249 70.0263 110.502 83.0869C111.992 84.8591 117.144 85.4663 117.632 91.6467C98.9495 79.4583 80.2784 80.9184 60.4634 88.5929C69.512 90.5346 79.2334 87.1662 86.2514 95.2118C85.302 95.7596 84.8978 96.1659 84.4864 96.2018C67.8984 96.7328 51.3082 97.2304 34.7158 97.6946C31.711 97.8575 28.6975 97.6969 25.727 97.2158C24.4246 96.971 23.4022 95.2749 22.2572 94.235C23.241 93.2682 24.0865 91.6662 25.2585 91.3363C43.8998 86.6633 62.5501 82.0206 81.2884 77.7312C84.5364 76.9722 88.1788 77.8377 91.8167 77.9627ZM105.745 80.302C104.158 69.6813 102.662 59.6241 101.082 49.1237C99.915 59.2096 98.8036 68.8471 97.6812 78.5143L105.745 80.302Z" fill="white"/>
<path d="M45.2712 169.109C49.2765 164.944 52.5687 160.564 59.9608 160.047C57.8343 163.697 56.449 166.451 54.6549 168.871C50.0957 175.178 45.3704 181.369 40.6548 187.571C39.8585 188.614 38.9217 189.963 37.801 190.255C36.3014 190.591 34.7316 190.399 33.357 189.712C32.6591 189.348 32.1057 187.398 32.4661 186.519C42.0668 161.021 51.7467 135.551 61.5055 110.111C61.7116 109.308 62.1077 108.567 62.6604 107.949C63.9727 106.975 65.3399 106.076 66.7552 105.258C66.8105 106.851 67.3701 108.621 66.8623 110.005C59.9884 128.65 52.9666 147.23 46.004 165.832C45.6932 166.908 45.4484 168.002 45.2712 169.109V169.109Z" fill="white"/>
<path d="M170.411 118.524L176.309 117.516L170.053 113.508L177.839 109.393L177.628 108.546C176.039 108.491 174.447 108.516 172.871 108.382C171.994 108.336 171.147 108.048 170.424 107.549C169.701 107.051 169.131 106.362 168.776 105.559C168.421 104.756 168.295 103.87 168.414 103C168.532 102.13 168.889 101.309 169.445 100.63C172.029 97.3945 174.808 94.3189 177.766 91.4202C178.511 90.6853 180.099 90.7899 181.298 90.5409C181.253 91.8501 181.64 93.4043 181.074 94.4355C179.26 97.7452 177.101 100.873 174.72 104.643C176.722 104.612 178.143 104.341 179.453 104.636C181.097 105.112 182.702 105.713 184.254 106.432C183.511 108.113 182.604 109.717 181.548 111.222C180.648 112.054 179.609 112.722 178.479 113.197C179.775 115.944 182.116 118.595 181.816 120.907C181.61 123.401 175.436 122.549 170.411 118.524Z" fill="white"/>
<path d="M63.517 165.173C62.7323 170.929 61.9475 176.689 61.1626 182.452L62.2161 182.658L73.2529 167.498C73.8835 176.525 71.2632 183.189 65.7438 188.323C64.7804 189.1 63.6549 189.651 62.4502 189.935C61.2455 190.219 59.9925 190.229 58.7833 189.965C57.4186 189.498 56.176 185.763 56.5338 183.794C57.7542 177.392 59.6705 171.124 61.3286 164.797L63.517 165.173Z" fill="white"/>
<path d="M132.725 82.5089C132.918 76.8922 133.111 71.2655 133.304 65.6388C133.321 65.1591 134.029 64.333 134.41 64.326C134.786 64.3246 135.158 64.3982 135.506 64.5424C135.853 64.6866 136.168 64.8986 136.432 65.1659C139.5 69.0735 138.141 78.6425 132.725 82.5089Z" fill="white"/>
<path d="M137.017 689.444C136.373 686.92 135.906 685.103 135.249 682.659L142.927 685.765L137.017 689.444Z" fill="black"/>
<path d="M105.685 80.2999L97.6227 78.4721C98.7451 68.805 99.8565 59.1674 101.023 49.0815C102.633 59.623 104.128 69.6802 105.685 80.2999Z" fill="black"/>
</g>
<defs>
<clipPath id="clip0_638_31">
<rect width="213.47" height="722.13" fill="white" transform="translate(25.4546 0.549316) rotate(1.96679)"/>
</clipPath>
</defs>
</svg>
