<svg width="180" height="44" viewBox="0 0 180 44" fill="none" xmlns="http://www.w3.org/2000/svg">
<path fill-rule="evenodd" clip-rule="evenodd" d="M5 14C5.55228 14 6 14.4477 6 15V16H7C7.55228 16 8 16.4477 8 17C8 17.5523 7.55228 18 7 18H6V19C6 19.5523 5.55228 20 5 20C4.44772 20 4 19.5523 4 19V18H3C2.44772 18 2 17.5523 2 17C2 16.4477 2.44772 16 3 16H4V15C4 14.4477 4.44772 14 5 14ZM5 24C5.55228 24 6 24.4477 6 25V26H7C7.55228 26 8 26.4477 8 27C8 27.5523 7.55228 28 7 28H6V29C6 29.5523 5.55228 30 5 30C4.44772 30 4 29.5523 4 29V28H3C2.44772 28 2 27.5523 2 27C2 26.4477 2.44772 26 3 26H4V25C4 24.4477 4.44772 24 5 24Z" fill="url(#paint0_linear_532_509)"/>
<path fill-rule="evenodd" clip-rule="evenodd" d="M11.9999 14C12.4537 14 12.8505 14.3055 12.9667 14.7441L14.1459 19.1989L17.4997 21.1338C17.8092 21.3124 17.9999 21.6426 17.9999 22C17.9999 22.3574 17.8092 22.6876 17.4997 22.8662L14.1459 24.8011L12.9667 29.2559C12.8505 29.6945 12.4537 30 11.9999 30C11.5462 30 11.1493 29.6945 11.0332 29.2559L9.85402 24.8011L6.50027 22.8662C6.19072 22.6876 6 22.3574 6 22C6 21.6426 6.19072 21.3124 6.50027 21.1338L9.85402 19.1989L11.0332 14.7441C11.1493 14.3055 11.5462 14 11.9999 14Z" fill="url(#paint1_linear_532_509)"/>
<path d="M33.12 29V26.632H32.144C31.52 26.632 31.424 26.344 31.424 25.88V22.76H33.12V20.392H31.424V17.88H27.904V20.392H26.224V22.76H27.904V26.552C27.904 28.04 28.48 29 30.032 29H33.12ZM34.3301 29H37.8981V24.936C37.8981 23.528 38.9381 22.6 40.5381 22.6C42.1221 22.6 42.8421 23.416 42.8421 24.744V29H46.4421V23.56C46.4421 21.896 45.2261 20.2 42.2501 20.2H42.1381C39.5781 20.2 38.2821 21.448 37.8981 21.832V17.096H34.3301V29ZM53.9563 22.152C55.7643 22.152 56.5963 22.696 56.8363 23.608H51.0763C51.3483 22.696 52.1483 22.152 53.9403 22.152H53.9563ZM60.3883 25.96H56.8683C56.8203 26.168 56.4363 27.064 54.0683 27.064H54.0523C52.0843 27.064 51.2203 26.392 51.0123 25.384H60.4363V24.792C60.4363 22.696 59.5083 20.152 54.4523 20.152H53.4763C48.8203 20.152 47.5083 22.28 47.5083 24.488V24.84C47.5083 27.096 48.9803 29.24 53.5723 29.24H54.4843C59.6203 29.24 60.3883 27.144 60.3883 25.976V25.96ZM68.1435 17.096H65.5515C63.0715 17.096 62.5595 18.296 62.5595 19.368V20.392H60.9115V22.76H62.5595V29H66.0795V22.76H68.1435V20.392H66.0795V19.912C66.0795 19.416 66.1915 19.208 66.7515 19.208H68.1435V17.096ZM75.9296 29.24C81.2416 29.24 82.0896 26.776 82.0896 24.792V24.504C82.0896 22.552 81.1776 20.152 75.9296 20.152H74.7936C69.8016 20.152 68.6176 22.52 68.6176 24.504V24.792C68.6176 26.776 69.8176 29.24 74.8096 29.24H75.9296ZM75.3696 26.92C72.9376 26.92 72.2656 25.704 72.2656 24.696V24.616C72.2656 23.528 72.9376 22.44 75.3696 22.44H75.3856C77.7856 22.44 78.4736 23.544 78.4736 24.616V24.696C78.4736 25.704 77.8016 26.92 75.3696 26.92ZM85.3545 29L87.8345 26.536L90.3625 29H94.3945L89.9305 24.568L94.2505 20.392H90.2505L87.9945 22.648L85.7385 20.392H81.5305L85.8825 24.632L81.3865 29H85.3545ZM98.167 29L100.647 26.536L103.175 29H107.207L102.743 24.568L107.063 20.392H103.063L100.807 22.648L98.551 20.392H94.343L98.695 24.632L94.199 29H98.167ZM113.058 29.24C117.81 29.24 118.738 27.864 118.738 26.28V26.184C118.738 24.456 117.906 23.56 113.938 23.48L112.402 23.448C110.914 23.4 110.594 23.144 110.594 22.76V22.728C110.594 22.296 110.93 22.088 112.642 22.088H112.658C114.578 22.088 114.738 22.648 114.786 22.968H118.418V22.856C118.418 21.512 117.378 20.152 113.026 20.152H112.386C107.65 20.152 106.946 21.512 106.946 22.84V22.936C106.946 24.2 107.842 25.544 111.586 25.624L113.122 25.656C114.802 25.704 115.01 25.96 115.01 26.408V26.44C115.01 26.856 114.77 27.256 112.786 27.256H112.754C110.674 27.256 110.546 26.408 110.546 26.088H106.866V26.184C106.866 27.288 107.378 29.24 112.402 29.24H113.058ZM125.948 29V26.632H124.972C124.348 26.632 124.252 26.344 124.252 25.88V22.76H125.948V20.392H124.252V17.88H120.732V20.392H119.052V22.76H120.732V26.552C120.732 28.04 121.308 29 122.86 29H125.948ZM139.062 20.392H135.494V24.456C135.494 25.864 134.486 26.792 132.934 26.792C131.414 26.792 130.726 25.928 130.726 24.648V20.392H127.126V25.752C127.126 27.368 128.262 29.192 131.222 29.192H131.35C133.846 29.192 135.094 27.912 135.526 27.512V29H139.062V20.392ZM145.205 29V22.76H148.229V29H151.749V22.76H153.813V20.392H151.749V19.912C151.749 19.416 151.861 19.208 152.421 19.208H153.813V17.096H151.221C148.741 17.096 148.229 18.296 148.229 19.368V20.392H145.205V19.912C145.205 19.416 145.317 19.208 145.877 19.208H147.253V17.096H144.677C142.197 17.096 141.685 18.296 141.685 19.368V20.392H140.037V22.76H141.685V29H145.205Z" fill="white"/>
<defs>
<linearGradient id="paint0_linear_532_509" x1="9.99997" y1="14" x2="9.99997" y2="30" gradientUnits="userSpaceOnUse">
<stop stop-color="#ADFF00"/>
<stop offset="0.4375" stop-color="#00FF85"/>
<stop offset="1" stop-color="#8000FF"/>
</linearGradient>
<linearGradient id="paint1_linear_532_509" x1="9.99997" y1="14" x2="9.99997" y2="30" gradientUnits="userSpaceOnUse">
<stop stop-color="#ADFF00"/>
<stop offset="0.4375" stop-color="#00FF85"/>
<stop offset="1" stop-color="#8000FF"/>
</linearGradient>
</defs>
</svg>
